{
    "asset" : {
        "generator" : "Khronos glTF Blender I/O v1.7.33",
        "version" : "2.0"
    },
    "scene" : 0,
    "scenes" : [
        {
            "name" : "Scene",
            "nodes" : [
                0
            ]
        }
    ],
    "nodes" : [
        {
            "mesh" : 0,
            "name" : "Plane",
            "rotation" : [
                0,
                0,
                0,
                -1
            ],
            "scale" : [
                7.789656639099121,
                7.789656639099121,
                7.789656639099121
            ],
            "translation" : [
                0,
                0,
                -1.071946144104004
            ]
        }
    ],
    "materials" : [
        {
            "doubleSided" : true,
            "name" : "Material.007",
            "pbrMetallicRoughness" : {
                "baseColorFactor" : [
                    0.9287900328636169,
                    0.27365443110466003,
                    1,
                    1
                ],
                "metallicFactor" : 0,
                "roughnessFactor" : 0
            }
        },
        {
            "alphaMode" : "BLEND",
            "doubleSided" : true,
            "name" : "glass",
            "pbrMetallicRoughness" : {}
        },
        {
            "doubleSided" : true,
            "name" : "Material.002",
            "pbrMetallicRoughness" : {}
        },
        {
            "doubleSided" : true,
            "name" : "Material.005",
            "pbrMetallicRoughness" : {
                "metallicFactor" : 0.6363636255264282
            }
        },
        {
            "doubleSided" : true,
            "name" : "Material.006",
            "pbrMetallicRoughness" : {}
        },
        {
            "doubleSided" : true,
            "name" : "Material.008",
            "pbrMetallicRoughness" : {
                "metallicFactor" : 0
            }
        },
        {
            "alphaMode" : "BLEND",
            "doubleSided" : true,
            "name" : "Material.010",
            "pbrMetallicRoughness" : {
                "baseColorFactor" : [
                    0.800000011920929,
                    0.800000011920929,
                    0.800000011920929,
                    1
                ],
                "roughnessFactor" : 0.774545431137085
            }
        },
        {
            "alphaMode" : "BLEND",
            "doubleSided" : true,
            "name" : "glass.001",
            "pbrMetallicRoughness" : {}
        },
        {
            "doubleSided" : true,
            "name" : "Material.004",
            "pbrMetallicRoughness" : {
                "baseColorFactor" : [
                    0.016361666843295097,
                    0.8000000715255737,
                    0.37167635560035706,
                    1
                ],
                "metallicFactor" : 0,
                "roughnessFactor" : 0
            }
        }
    ],
    "meshes" : [
        {
            "name" : "Plane",
            "primitives" : [
                {
                    "attributes" : {
                        "POSITION" : 0,
                        "NORMAL" : 1,
                        "TEXCOORD_0" : 2
                    },
                    "indices" : 3,
                    "material" : 0
                },
                {
                    "attributes" : {
                        "POSITION" : 4,
                        "NORMAL" : 5,
                        "TEXCOORD_0" : 6
                    },
                    "indices" : 7,
                    "material" : 1
                },
                {
                    "attributes" : {
                        "POSITION" : 8,
                        "NORMAL" : 9,
                        "TEXCOORD_0" : 10
                    },
                    "indices" : 11,
                    "material" : 2
                },
                {
                    "attributes" : {
                        "POSITION" : 12,
                        "NORMAL" : 13,
                        "TEXCOORD_0" : 14
                    },
                    "indices" : 15,
                    "material" : 3
                },
                {
                    "attributes" : {
                        "POSITION" : 16,
                        "NORMAL" : 17,
                        "TEXCOORD_0" : 18
                    },
                    "indices" : 19,
                    "material" : 4
                },
                {
                    "attributes" : {
                        "POSITION" : 20,
                        "NORMAL" : 21,
                        "TEXCOORD_0" : 22
                    },
                    "indices" : 23,
                    "material" : 5
                },
                {
                    "attributes" : {
                        "POSITION" : 24,
                        "NORMAL" : 25,
                        "TEXCOORD_0" : 26
                    },
                    "indices" : 27
                },
                {
                    "attributes" : {
                        "POSITION" : 28,
                        "NORMAL" : 29,
                        "TEXCOORD_0" : 30
                    },
                    "indices" : 31,
                    "material" : 6
                },
                {
                    "attributes" : {
                        "POSITION" : 32,
                        "NORMAL" : 33,
                        "TEXCOORD_0" : 34
                    },
                    "indices" : 35,
                    "material" : 7
                },
                {
                    "attributes" : {
                        "POSITION" : 36,
                        "NORMAL" : 37,
                        "TEXCOORD_0" : 38
                    },
                    "indices" : 39,
                    "material" : 8
                }
            ]
        }
    ],
    "accessors" : [
        {
            "bufferView" : 0,
            "componentType" : 5126,
            "count" : 702,
            "max" : [
                1.7243064641952515,
                0.7097184658050537,
                2.3497071266174316
            ],
            "min" : [
                -1.7243064641952515,
                -0.01944689452648163,
                -2.3497071266174316
            ],
            "type" : "VEC3"
        },
        {
            "bufferView" : 1,
            "componentType" : 5126,
            "count" : 702,
            "type" : "VEC3"
        },
        {
            "bufferView" : 2,
            "componentType" : 5126,
            "count" : 702,
            "type" : "VEC2"
        },
        {
            "bufferView" : 3,
            "componentType" : 5123,
            "count" : 2820,
            "type" : "SCALAR"
        },
        {
            "bufferView" : 4,
            "componentType" : 5126,
            "count" : 152,
            "max" : [
                1,
                0.9459385275840759,
                1.7488138675689697
            ],
            "min" : [
                -1,
                0.025267064571380615,
                -1.0534430742263794
            ],
            "type" : "VEC3"
        },
        {
            "bufferView" : 5,
            "componentType" : 5126,
            "count" : 152,
            "type" : "VEC3"
        },
        {
            "bufferView" : 6,
            "componentType" : 5126,
            "count" : 152,
            "type" : "VEC2"
        },
        {
            "bufferView" : 7,
            "componentType" : 5123,
            "count" : 534,
            "type" : "SCALAR"
        },
        {
            "bufferView" : 8,
            "componentType" : 5126,
            "count" : 192,
            "max" : [
                -0.5261555910110474,
                0.6115335822105408,
                -0.05343222618103027
            ],
            "min" : [
                -0.6887062788009644,
                0.44898277521133423,
                -2.0534322261810303
            ],
            "type" : "VEC3"
        },
        {
            "bufferView" : 9,
            "componentType" : 5126,
            "count" : 192,
            "type" : "VEC3"
        },
        {
            "bufferView" : 10,
            "componentType" : 5126,
            "count" : 192,
            "type" : "VEC2"
        },
        {
            "bufferView" : 11,
            "componentType" : 5123,
            "count" : 372,
            "type" : "SCALAR"
        },
        {
            "bufferView" : 12,
            "componentType" : 5126,
            "count" : 1689,
            "max" : [
                1.3938331604003906,
                0.9736990928649902,
                1.7501100301742554
            ],
            "min" : [
                0.04727655649185181,
                0.003931701183319092,
                -2.0848491191864014
            ],
            "type" : "VEC3"
        },
        {
            "bufferView" : 13,
            "componentType" : 5126,
            "count" : 1689,
            "type" : "VEC3"
        },
        {
            "bufferView" : 14,
            "componentType" : 5126,
            "count" : 1689,
            "type" : "VEC2"
        },
        {
            "bufferView" : 15,
            "componentType" : 5123,
            "count" : 8106,
            "type" : "SCALAR"
        },
        {
            "bufferView" : 16,
            "componentType" : 5126,
            "count" : 4001,
            "max" : [
                1.3931493759155273,
                0.967359721660614,
                1.7190924882888794
            ],
            "min" : [
                -0.9625352621078491,
                0.008072614669799805,
                -2.083320140838623
            ],
            "type" : "VEC3"
        },
        {
            "bufferView" : 17,
            "componentType" : 5126,
            "count" : 4001,
            "type" : "VEC3"
        },
        {
            "bufferView" : 18,
            "componentType" : 5126,
            "count" : 4001,
            "type" : "VEC2"
        },
        {
            "bufferView" : 19,
            "componentType" : 5123,
            "count" : 22032,
            "type" : "SCALAR"
        },
        {
            "bufferView" : 20,
            "componentType" : 5126,
            "count" : 4,
            "max" : [
                0.36290502548217773,
                1.5518003702163696,
                1.037634015083313
            ],
            "min" : [
                -1.6370949745178223,
                -0.44819962978363037,
                1.037634015083313
            ],
            "type" : "VEC3"
        },
        {
            "bufferView" : 21,
            "componentType" : 5126,
            "count" : 4,
            "type" : "VEC3"
        },
        {
            "bufferView" : 22,
            "componentType" : 5126,
            "count" : 4,
            "type" : "VEC2"
        },
        {
            "bufferView" : 23,
            "componentType" : 5123,
            "count" : 6,
            "type" : "SCALAR"
        },
        {
            "bufferView" : 24,
            "componentType" : 5126,
            "count" : 1966,
            "max" : [
                -0.5434221029281616,
                0.6117277145385742,
                1.430406093597412
            ],
            "min" : [
                -0.7343205213546753,
                0.4928252696990967,
                1.292959213256836
            ],
            "type" : "VEC3"
        },
        {
            "bufferView" : 25,
            "componentType" : 5126,
            "count" : 1966,
            "type" : "VEC3"
        },
        {
            "bufferView" : 26,
            "componentType" : 5126,
            "count" : 1966,
            "type" : "VEC2"
        },
        {
            "bufferView" : 27,
            "componentType" : 5123,
            "count" : 2904,
            "type" : "SCALAR"
        },
        {
            "bufferView" : 28,
            "componentType" : 5126,
            "count" : 8,
            "max" : [
                0.9989031553268433,
                0.9062209129333496,
                -0.4686051309108734
            ],
            "min" : [
                -0.9956599473953247,
                0.06855285167694092,
                -0.4686051607131958
            ],
            "type" : "VEC3"
        },
        {
            "bufferView" : 29,
            "componentType" : 5126,
            "count" : 8,
            "type" : "VEC3"
        },
        {
            "bufferView" : 30,
            "componentType" : 5126,
            "count" : 8,
            "type" : "VEC2"
        },
        {
            "bufferView" : 31,
            "componentType" : 5123,
            "count" : 12,
            "type" : "SCALAR"
        },
        {
            "bufferView" : 32,
            "componentType" : 5126,
            "count" : 2259,
            "max" : [
                0.655906617641449,
                0.7529991865158081,
                1.3057407140731812
            ],
            "min" : [
                0.2759378254413605,
                0.6064506769180298,
                1.1883522272109985
            ],
            "type" : "VEC3"
        },
        {
            "bufferView" : 33,
            "componentType" : 5126,
            "count" : 2259,
            "type" : "VEC3"
        },
        {
            "bufferView" : 34,
            "componentType" : 5126,
            "count" : 2259,
            "type" : "VEC2"
        },
        {
            "bufferView" : 35,
            "componentType" : 5123,
            "count" : 9000,
            "type" : "SCALAR"
        },
        {
            "bufferView" : 36,
            "componentType" : 5126,
            "count" : 749,
            "max" : [
                0.5311246514320374,
                0.7501264810562134,
                1.3048025369644165
            ],
            "min" : [
                0.38192448019981384,
                0.6624019145965576,
                1.258884072303772
            ],
            "type" : "VEC3"
        },
        {
            "bufferView" : 37,
            "componentType" : 5126,
            "count" : 749,
            "type" : "VEC3"
        },
        {
            "bufferView" : 38,
            "componentType" : 5126,
            "count" : 749,
            "type" : "VEC2"
        },
        {
            "bufferView" : 39,
            "componentType" : 5123,
            "count" : 3048,
            "type" : "SCALAR"
        }
    ],
    "bufferViews" : [
        {
            "buffer" : 0,
            "byteLength" : 8424,
            "byteOffset" : 0
        },
        {
            "buffer" : 0,
            "byteLength" : 8424,
            "byteOffset" : 8424
        },
        {
            "buffer" : 0,
            "byteLength" : 5616,
            "byteOffset" : 16848
        },
        {
            "buffer" : 0,
            "byteLength" : 5640,
            "byteOffset" : 22464
        },
        {
            "buffer" : 0,
            "byteLength" : 1824,
            "byteOffset" : 28104
        },
        {
            "buffer" : 0,
            "byteLength" : 1824,
            "byteOffset" : 29928
        },
        {
            "buffer" : 0,
            "byteLength" : 1216,
            "byteOffset" : 31752
        },
        {
            "buffer" : 0,
            "byteLength" : 1068,
            "byteOffset" : 32968
        },
        {
            "buffer" : 0,
            "byteLength" : 2304,
            "byteOffset" : 34036
        },
        {
            "buffer" : 0,
            "byteLength" : 2304,
            "byteOffset" : 36340
        },
        {
            "buffer" : 0,
            "byteLength" : 1536,
            "byteOffset" : 38644
        },
        {
            "buffer" : 0,
            "byteLength" : 744,
            "byteOffset" : 40180
        },
        {
            "buffer" : 0,
            "byteLength" : 20268,
            "byteOffset" : 40924
        },
        {
            "buffer" : 0,
            "byteLength" : 20268,
            "byteOffset" : 61192
        },
        {
            "buffer" : 0,
            "byteLength" : 13512,
            "byteOffset" : 81460
        },
        {
            "buffer" : 0,
            "byteLength" : 16212,
            "byteOffset" : 94972
        },
        {
            "buffer" : 0,
            "byteLength" : 48012,
            "byteOffset" : 111184
        },
        {
            "buffer" : 0,
            "byteLength" : 48012,
            "byteOffset" : 159196
        },
        {
            "buffer" : 0,
            "byteLength" : 32008,
            "byteOffset" : 207208
        },
        {
            "buffer" : 0,
            "byteLength" : 44064,
            "byteOffset" : 239216
        },
        {
            "buffer" : 0,
            "byteLength" : 48,
            "byteOffset" : 283280
        },
        {
            "buffer" : 0,
            "byteLength" : 48,
            "byteOffset" : 283328
        },
        {
            "buffer" : 0,
            "byteLength" : 32,
            "byteOffset" : 283376
        },
        {
            "buffer" : 0,
            "byteLength" : 12,
            "byteOffset" : 283408
        },
        {
            "buffer" : 0,
            "byteLength" : 23592,
            "byteOffset" : 283420
        },
        {
            "buffer" : 0,
            "byteLength" : 23592,
            "byteOffset" : 307012
        },
        {
            "buffer" : 0,
            "byteLength" : 15728,
            "byteOffset" : 330604
        },
        {
            "buffer" : 0,
            "byteLength" : 5808,
            "byteOffset" : 346332
        },
        {
            "buffer" : 0,
            "byteLength" : 96,
            "byteOffset" : 352140
        },
        {
            "buffer" : 0,
            "byteLength" : 96,
            "byteOffset" : 352236
        },
        {
            "buffer" : 0,
            "byteLength" : 64,
            "byteOffset" : 352332
        },
        {
            "buffer" : 0,
            "byteLength" : 24,
            "byteOffset" : 352396
        },
        {
            "buffer" : 0,
            "byteLength" : 27108,
            "byteOffset" : 352420
        },
        {
            "buffer" : 0,
            "byteLength" : 27108,
            "byteOffset" : 379528
        },
        {
            "buffer" : 0,
            "byteLength" : 18072,
            "byteOffset" : 406636
        },
        {
            "buffer" : 0,
            "byteLength" : 18000,
            "byteOffset" : 424708
        },
        {
            "buffer" : 0,
            "byteLength" : 8988,
            "byteOffset" : 442708
        },
        {
            "buffer" : 0,
            "byteLength" : 8988,
            "byteOffset" : 451696
        },
        {
            "buffer" : 0,
            "byteLength" : 5992,
            "byteOffset" : 460684
        },
        {
            "buffer" : 0,
            "byteLength" : 6096,
            "byteOffset" : 466676
        }
    ],
    "buffers" : [
        {
            "byteLength" : 472772,
            "uri" : "data:application/octet-stream;base64,"
        }
    ]
}
