{
    "asset" : {
        "generator" : "Khronos glTF Blender I/O v1.7.33",
        "version" : "2.0"
    },
    "scene" : 0,
    "scenes" : [
        {
            "name" : "Scene",
            "nodes" : [
                0
            ]
        }
    ],
    "nodes" : [
        {
            "mesh" : 0,
            "name" : "Plane",
            "rotation" : [
                -3.8870835851412266e-05,
                0,
                0,
                -1
            ],
            "scale" : [
                12.32126235961914,
                12.32126235961914,
                12.32126235961914
            ],
            "translation" : [
                0,
                0,
                -1.071946144104004
            ]
        }
    ],
    "materials" : [
        {
            "doubleSided" : true,
            "name" : "Material.001",
            "pbrMetallicRoughness" : {
                "baseColorTexture" : {
                    "index" : 0
                },
                "metallicFactor" : 0,
                "roughnessFactor" : 0.5
            }
        },
        {
            "doubleSided" : true,
            "name" : "Material",
            "normalTexture" : {
                "index" : 1
            },
            "pbrMetallicRoughness" : {
                "baseColorTexture" : {
                    "index" : 2
                },
                "metallicFactor" : 0,
                "metallicRoughnessTexture" : {
                    "index" : 3
                }
            }
        },
        {
            "doubleSided" : true,
            "name" : "Material.002",
            "pbrMetallicRoughness" : {}
        },
        {
            "doubleSided" : true,
            "name" : "Material.005",
            "pbrMetallicRoughness" : {
                "metallicFactor" : 0.6363636255264282
            }
        },
        {
            "doubleSided" : true,
            "name" : "Material.006",
            "pbrMetallicRoughness" : {}
        },
        {
            "alphaMode" : "BLEND",
            "doubleSided" : true,
            "name" : "glass",
            "pbrMetallicRoughness" : {}
        },
        {
            "doubleSided" : true,
            "name" : "Material.008",
            "pbrMetallicRoughness" : {
                "metallicFactor" : 0
            }
        },
        {
            "alphaMode" : "BLEND",
            "doubleSided" : true,
            "name" : "Material.010",
            "pbrMetallicRoughness" : {
                "baseColorFactor" : [
                    0.800000011920929,
                    0.800000011920929,
                    0.800000011920929,
                    1
                ],
                "roughnessFactor" : 0.774545431137085
            }
        },
        {
            "alphaMode" : "BLEND",
            "doubleSided" : true,
            "name" : "glass.001",
            "pbrMetallicRoughness" : {}
        },
        {
            "doubleSided" : true,
            "name" : "Material.004",
            "pbrMetallicRoughness" : {
                "baseColorFactor" : [
                    0.016361666843295097,
                    0.8000000715255737,
                    0.37167635560035706,
                    1
                ],
                "metallicFactor" : 0,
                "roughnessFactor" : 0
            }
        },
        {
            "doubleSided" : true,
            "name" : "Material.007",
            "pbrMetallicRoughness" : {
                "baseColorFactor" : [
                    0.9287900328636169,
                    0.27365443110466003,
                    1,
                    1
                ],
                "metallicFactor" : 0,
                "roughnessFactor" : 0
            }
        }
    ],
    "meshes" : [
        {
            "name" : "Plane",
            "primitives" : [
                {
                    "attributes" : {
                        "POSITION" : 0,
                        "NORMAL" : 1,
                        "TEXCOORD_0" : 2
                    },
                    "indices" : 3,
                    "material" : 0
                },
                {
                    "attributes" : {
                        "POSITION" : 4,
                        "NORMAL" : 5,
                        "TEXCOORD_0" : 6
                    },
                    "indices" : 7,
                    "material" : 1
                },
                {
                    "attributes" : {
                        "POSITION" : 8,
                        "NORMAL" : 9,
                        "TEXCOORD_0" : 10
                    },
                    "indices" : 11,
                    "material" : 2
                },
                {
                    "attributes" : {
                        "POSITION" : 12,
                        "NORMAL" : 13,
                        "TEXCOORD_0" : 14
                    },
                    "indices" : 15,
                    "material" : 3
                },
                {
                    "attributes" : {
                        "POSITION" : 16,
                        "NORMAL" : 17,
                        "TEXCOORD_0" : 18
                    },
                    "indices" : 19,
                    "material" : 4
                },
                {
                    "attributes" : {
                        "POSITION" : 20,
                        "NORMAL" : 21,
                        "TEXCOORD_0" : 22
                    },
                    "indices" : 23,
                    "material" : 5
                },
                {
                    "attributes" : {
                        "POSITION" : 24,
                        "NORMAL" : 25,
                        "TEXCOORD_0" : 26
                    },
                    "indices" : 27
                },
                {
                    "attributes" : {
                        "POSITION" : 28,
                        "NORMAL" : 29,
                        "TEXCOORD_0" : 30
                    },
                    "indices" : 31,
                    "material" : 6
                },
                {
                    "attributes" : {
                        "POSITION" : 32,
                        "NORMAL" : 33,
                        "TEXCOORD_0" : 34
                    },
                    "indices" : 35,
                    "material" : 7
                },
                {
                    "attributes" : {
                        "POSITION" : 36,
                        "NORMAL" : 37,
                        "TEXCOORD_0" : 38
                    },
                    "indices" : 39,
                    "material" : 8
                },
                {
                    "attributes" : {
                        "POSITION" : 40,
                        "NORMAL" : 41,
                        "TEXCOORD_0" : 42
                    },
                    "indices" : 43,
                    "material" : 9
                },
                {
                    "attributes" : {
                        "POSITION" : 44,
                        "NORMAL" : 45,
                        "TEXCOORD_0" : 46
                    },
                    "indices" : 47,
                    "material" : 10
                }
            ]
        }
    ],
    "textures" : [
        {
            "sampler" : 0,
            "source" : 0
        },
        {
            "sampler" : 0,
            "source" : 0
        },
        {
            "sampler" : 0,
            "source" : 0
        },
        {
            "sampler" : 0,
            "source" : 1
        }
    ],
    "images" : [
        {
            "bufferView" : 4,
            "mimeType" : "image/jpeg",
            "name" : "mghvs5zq-900"
        },
        {
            "bufferView" : 9,
            "mimeType" : "image/png",
            "name" : "mghvs5zq-900"
        }
    ],
    "accessors" : [
        {
            "bufferView" : 0,
            "componentType" : 5126,
            "count" : 80,
            "max" : [
                1.7243064641952515,
                0.01944689452648163,
                2.3497071266174316
            ],
            "min" : [
                -1.7243064641952515,
                -0.01944689452648163,
                -2.3497071266174316
            ],
            "type" : "VEC3"
        },
        {
            "bufferView" : 1,
            "componentType" : 5126,
            "count" : 80,
            "type" : "VEC3"
        },
        {
            "bufferView" : 2,
            "componentType" : 5126,
            "count" : 80,
            "type" : "VEC2"
        },
        {
            "bufferView" : 3,
            "componentType" : 5123,
            "count" : 348,
            "type" : "SCALAR"
        },
        {
            "bufferView" : 5,
            "componentType" : 5126,
            "count" : 20,
            "max" : [
                1,
                0.9459385275840759,
                1.7488138675689697
            ],
            "min" : [
                -1,
                0.025267064571380615,
                -1.0534430742263794
            ],
            "type" : "VEC3"
        },
        {
            "bufferView" : 6,
            "componentType" : 5126,
            "count" : 20,
            "type" : "VEC3"
        },
        {
            "bufferView" : 7,
            "componentType" : 5126,
            "count" : 20,
            "type" : "VEC2"
        },
        {
            "bufferView" : 8,
            "componentType" : 5123,
            "count" : 30,
            "type" : "SCALAR"
        },
        {
            "bufferView" : 10,
            "componentType" : 5126,
            "count" : 192,
            "max" : [
                -0.5261555910110474,
                0.6115335822105408,
                -0.05343222618103027
            ],
            "min" : [
                -0.6887062788009644,
                0.44898277521133423,
                -2.0534322261810303
            ],
            "type" : "VEC3"
        },
        {
            "bufferView" : 11,
            "componentType" : 5126,
            "count" : 192,
            "type" : "VEC3"
        },
        {
            "bufferView" : 12,
            "componentType" : 5126,
            "count" : 192,
            "type" : "VEC2"
        },
        {
            "bufferView" : 13,
            "componentType" : 5123,
            "count" : 372,
            "type" : "SCALAR"
        },
        {
            "bufferView" : 14,
            "componentType" : 5126,
            "count" : 1689,
            "max" : [
                1.3938331604003906,
                0.9736990928649902,
                1.7501100301742554
            ],
            "min" : [
                0.04727655649185181,
                0.003931701183319092,
                -2.0848491191864014
            ],
            "type" : "VEC3"
        },
        {
            "bufferView" : 15,
            "componentType" : 5126,
            "count" : 1689,
            "type" : "VEC3"
        },
        {
            "bufferView" : 16,
            "componentType" : 5126,
            "count" : 1689,
            "type" : "VEC2"
        },
        {
            "bufferView" : 17,
            "componentType" : 5123,
            "count" : 8106,
            "type" : "SCALAR"
        },
        {
            "bufferView" : 18,
            "componentType" : 5126,
            "count" : 4001,
            "max" : [
                1.3931493759155273,
                0.967359721660614,
                1.7190924882888794
            ],
            "min" : [
                -0.9625352621078491,
                0.008072614669799805,
                -2.083320140838623
            ],
            "type" : "VEC3"
        },
        {
            "bufferView" : 19,
            "componentType" : 5126,
            "count" : 4001,
            "type" : "VEC3"
        },
        {
            "bufferView" : 20,
            "componentType" : 5126,
            "count" : 4001,
            "type" : "VEC2"
        },
        {
            "bufferView" : 21,
            "componentType" : 5123,
            "count" : 22032,
            "type" : "SCALAR"
        },
        {
            "bufferView" : 22,
            "componentType" : 5126,
            "count" : 132,
            "max" : [
                -0.4984586238861084,
                0.6980198621749878,
                1.6137468814849854
            ],
            "min" : [
                -0.8017499446868896,
                0.3954355716705322,
                1.1444785594940186
            ],
            "type" : "VEC3"
        },
        {
            "bufferView" : 23,
            "componentType" : 5126,
            "count" : 132,
            "type" : "VEC3"
        },
        {
            "bufferView" : 24,
            "componentType" : 5126,
            "count" : 132,
            "type" : "VEC2"
        },
        {
            "bufferView" : 25,
            "componentType" : 5123,
            "count" : 504,
            "type" : "SCALAR"
        },
        {
            "bufferView" : 26,
            "componentType" : 5126,
            "count" : 1966,
            "max" : [
                -0.5434221029281616,
                0.6117277145385742,
                1.430406093597412
            ],
            "min" : [
                -0.7343205213546753,
                0.4928252696990967,
                1.292959213256836
            ],
            "type" : "VEC3"
        },
        {
            "bufferView" : 27,
            "componentType" : 5126,
            "count" : 1966,
            "type" : "VEC3"
        },
        {
            "bufferView" : 28,
            "componentType" : 5126,
            "count" : 1966,
            "type" : "VEC2"
        },
        {
            "bufferView" : 29,
            "componentType" : 5123,
            "count" : 2904,
            "type" : "SCALAR"
        },
        {
            "bufferView" : 30,
            "componentType" : 5126,
            "count" : 1440,
            "max" : [
                -0.37604692578315735,
                0.7156336307525635,
                1.037968397140503
            ],
            "min" : [
                -0.8953015804290771,
                0.33789700269699097,
                0.07466644048690796
            ],
            "type" : "VEC3"
        },
        {
            "bufferView" : 31,
            "componentType" : 5126,
            "count" : 1440,
            "type" : "VEC3"
        },
        {
            "bufferView" : 32,
            "componentType" : 5126,
            "count" : 1440,
            "type" : "VEC2"
        },
        {
            "bufferView" : 33,
            "componentType" : 5123,
            "count" : 8208,
            "type" : "SCALAR"
        },
        {
            "bufferView" : 34,
            "componentType" : 5126,
            "count" : 8,
            "max" : [
                0.9989031553268433,
                0.9062209129333496,
                -0.4686051309108734
            ],
            "min" : [
                -0.9956599473953247,
                0.06855285167694092,
                -0.4686051607131958
            ],
            "type" : "VEC3"
        },
        {
            "bufferView" : 35,
            "componentType" : 5126,
            "count" : 8,
            "type" : "VEC3"
        },
        {
            "bufferView" : 36,
            "componentType" : 5126,
            "count" : 8,
            "type" : "VEC2"
        },
        {
            "bufferView" : 37,
            "componentType" : 5123,
            "count" : 12,
            "type" : "SCALAR"
        },
        {
            "bufferView" : 38,
            "componentType" : 5126,
            "count" : 2259,
            "max" : [
                0.655906617641449,
                0.7529991865158081,
                1.3057407140731812
            ],
            "min" : [
                0.2759378254413605,
                0.6064506769180298,
                1.1883522272109985
            ],
            "type" : "VEC3"
        },
        {
            "bufferView" : 39,
            "componentType" : 5126,
            "count" : 2259,
            "type" : "VEC3"
        },
        {
            "bufferView" : 40,
            "componentType" : 5126,
            "count" : 2259,
            "type" : "VEC2"
        },
        {
            "bufferView" : 41,
            "componentType" : 5123,
            "count" : 9000,
            "type" : "SCALAR"
        },
        {
            "bufferView" : 42,
            "componentType" : 5126,
            "count" : 749,
            "max" : [
                0.5311246514320374,
                0.7501264810562134,
                1.3048025369644165
            ],
            "min" : [
                0.38192448019981384,
                0.6624019145965576,
                1.258884072303772
            ],
            "type" : "VEC3"
        },
        {
            "bufferView" : 43,
            "componentType" : 5126,
            "count" : 749,
            "type" : "VEC3"
        },
        {
            "bufferView" : 44,
            "componentType" : 5126,
            "count" : 749,
            "type" : "VEC2"
        },
        {
            "bufferView" : 45,
            "componentType" : 5123,
            "count" : 3048,
            "type" : "SCALAR"
        },
        {
            "bufferView" : 46,
            "componentType" : 5126,
            "count" : 622,
            "max" : [
                0.6527962684631348,
                0.7097184658050537,
                1.3011233806610107
            ],
            "min" : [
                0.2798246145248413,
                0.6095609664916992,
                1.2669973373413086
            ],
            "type" : "VEC3"
        },
        {
            "bufferView" : 47,
            "componentType" : 5126,
            "count" : 622,
            "type" : "VEC3"
        },
        {
            "bufferView" : 48,
            "componentType" : 5126,
            "count" : 622,
            "type" : "VEC2"
        },
        {
            "bufferView" : 49,
            "componentType" : 5123,
            "count" : 2472,
            "type" : "SCALAR"
        }
    ],
    "bufferViews" : [
        {
            "buffer" : 0,
            "byteLength" : 960,
            "byteOffset" : 0
        },
        {
            "buffer" : 0,
            "byteLength" : 960,
            "byteOffset" : 960
        },
        {
            "buffer" : 0,
            "byteLength" : 640,
            "byteOffset" : 1920
        },
        {
            "buffer" : 0,
            "byteLength" : 696,
            "byteOffset" : 2560
        },
        {
            "buffer" : 0,
            "byteLength" : 232012,
            "byteOffset" : 3256
        },
        {
            "buffer" : 0,
            "byteLength" : 240,
            "byteOffset" : 235268
        },
        {
            "buffer" : 0,
            "byteLength" : 240,
            "byteOffset" : 235508
        },
        {
            "buffer" : 0,
            "byteLength" : 160,
            "byteOffset" : 235748
        },
        {
            "buffer" : 0,
            "byteLength" : 60,
            "byteOffset" : 235908
        },
        {
            "buffer" : 0,
            "byteLength" : 707690,
            "byteOffset" : 235968
        },
        {
            "buffer" : 0,
            "byteLength" : 2304,
            "byteOffset" : 943660
        },
        {
            "buffer" : 0,
            "byteLength" : 2304,
            "byteOffset" : 945964
        },
        {
            "buffer" : 0,
            "byteLength" : 1536,
            "byteOffset" : 948268
        },
        {
            "buffer" : 0,
            "byteLength" : 744,
            "byteOffset" : 949804
        },
        {
            "buffer" : 0,
            "byteLength" : 20268,
            "byteOffset" : 950548
        },
        {
            "buffer" : 0,
            "byteLength" : 20268,
            "byteOffset" : 970816
        },
        {
            "buffer" : 0,
            "byteLength" : 13512,
            "byteOffset" : 991084
        },
        {
            "buffer" : 0,
            "byteLength" : 16212,
            "byteOffset" : 1004596
        },
        {
            "buffer" : 0,
            "byteLength" : 48012,
            "byteOffset" : 1020808
        },
        {
            "buffer" : 0,
            "byteLength" : 48012,
            "byteOffset" : 1068820
        },
        {
            "buffer" : 0,
            "byteLength" : 32008,
            "byteOffset" : 1116832
        },
        {
            "buffer" : 0,
            "byteLength" : 44064,
            "byteOffset" : 1148840
        },
        {
            "buffer" : 0,
            "byteLength" : 1584,
            "byteOffset" : 1192904
        },
        {
            "buffer" : 0,
            "byteLength" : 1584,
            "byteOffset" : 1194488
        },
        {
            "buffer" : 0,
            "byteLength" : 1056,
            "byteOffset" : 1196072
        },
        {
            "buffer" : 0,
            "byteLength" : 1008,
            "byteOffset" : 1197128
        },
        {
            "buffer" : 0,
            "byteLength" : 23592,
            "byteOffset" : 1198136
        },
        {
            "buffer" : 0,
            "byteLength" : 23592,
            "byteOffset" : 1221728
        },
        {
            "buffer" : 0,
            "byteLength" : 15728,
            "byteOffset" : 1245320
        },
        {
            "buffer" : 0,
            "byteLength" : 5808,
            "byteOffset" : 1261048
        },
        {
            "buffer" : 0,
            "byteLength" : 17280,
            "byteOffset" : 1266856
        },
        {
            "buffer" : 0,
            "byteLength" : 17280,
            "byteOffset" : 1284136
        },
        {
            "buffer" : 0,
            "byteLength" : 11520,
            "byteOffset" : 1301416
        },
        {
            "buffer" : 0,
            "byteLength" : 16416,
            "byteOffset" : 1312936
        },
        {
            "buffer" : 0,
            "byteLength" : 96,
            "byteOffset" : 1329352
        },
        {
            "buffer" : 0,
            "byteLength" : 96,
            "byteOffset" : 1329448
        },
        {
            "buffer" : 0,
            "byteLength" : 64,
            "byteOffset" : 1329544
        },
        {
            "buffer" : 0,
            "byteLength" : 24,
            "byteOffset" : 1329608
        },
        {
            "buffer" : 0,
            "byteLength" : 27108,
            "byteOffset" : 1329632
        },
        {
            "buffer" : 0,
            "byteLength" : 27108,
            "byteOffset" : 1356740
        },
        {
            "buffer" : 0,
            "byteLength" : 18072,
            "byteOffset" : 1383848
        },
        {
            "buffer" : 0,
            "byteLength" : 18000,
            "byteOffset" : 1401920
        },
        {
            "buffer" : 0,
            "byteLength" : 8988,
            "byteOffset" : 1419920
        },
        {
            "buffer" : 0,
            "byteLength" : 8988,
            "byteOffset" : 1428908
        },
        {
            "buffer" : 0,
            "byteLength" : 5992,
            "byteOffset" : 1437896
        },
        {
            "buffer" : 0,
            "byteLength" : 6096,
            "byteOffset" : 1443888
        },
        {
            "buffer" : 0,
            "byteLength" : 7464,
            "byteOffset" : 1449984
        },
        {
            "buffer" : 0,
            "byteLength" : 7464,
            "byteOffset" : 1457448
        },
        {
            "buffer" : 0,
            "byteLength" : 4976,
            "byteOffset" : 1464912
        },
        {
            "buffer" : 0,
            "byteLength" : 4944,
            "byteOffset" : 1469888
        }
    ],
    "samplers" : [
        {
            "magFilter" : 9729,
            "minFilter" : 9987
        }
    ],
    "buffers" : [
        {
            "byteLength" : 1474832,
            "uri" : "data:application/octet-stream;base64,"
        }
    ]
}
